<svg xmlns="http://www.w3.org/2000/svg" xmlns:xlink="http://www.w3.org/1999/xlink" width="500" zoomAndPan="magnify" viewBox="0 0 375 374.999991" height="500" preserveAspectRatio="xMidYMid meet" version="1.0"><defs><filter x="0%" y="0%" width="100%" height="100%" id="a50ba1241d"><feColorMatrix values="0 0 0 0 1 0 0 0 0 1 0 0 0 0 1 0 0 0 1 0" color-interpolation-filters="sRGB"/></filter><clipPath id="662aa2d50a"><path d="M 0 243.878906 L 131.121094 243.878906 L 131.121094 375 L 0 375 Z M 0 243.878906 " clip-rule="nonzero"/></clipPath><clipPath id="ee9b51d556"><path d="M 65.558594 243.878906 C 29.351562 243.878906 0 273.234375 0 309.441406 C 0 345.648438 29.351562 375 65.558594 375 C 101.765625 375 131.121094 345.648438 131.121094 309.441406 C 131.121094 273.234375 101.765625 243.878906 65.558594 243.878906 Z M 65.558594 243.878906 " clip-rule="nonzero"/></clipPath><clipPath id="adb07f3321"><path d="M 64 12 L 363 12 L 363 312 L 64 312 Z M 64 12 " clip-rule="nonzero"/></clipPath><clipPath id="d7e9ef8c15"><path d="M 64.128906 244.808594 L 316.136719 -7.199219 L 382.441406 59.105469 L 130.433594 311.113281 Z M 64.128906 244.808594 " clip-rule="nonzero"/></clipPath><clipPath id="2b1fc0ffd7"><path d="M 296.234375 12.703125 L 64.128906 244.808594 L 130.433594 311.113281 L 362.539062 79.007812 L 349.273438 25.964844 Z M 296.234375 12.703125 " clip-rule="nonzero"/></clipPath><clipPath id="290863dbf1"><path d="M 50 178 L 199 178 L 199 327 L 50 327 Z M 50 178 " clip-rule="nonzero"/></clipPath><clipPath id="0f8c42ef40"><path d="M 92.960938 165.285156 L 212.335938 284.660156 L 156.875 340.121094 L 37.496094 220.746094 Z M 92.960938 165.285156 " clip-rule="nonzero"/></clipPath><clipPath id="ffed17515b"><path d="M 192.4375 264.757812 C 203.417969 275.742188 199.90625 297.0625 184.59375 312.378906 C 169.277344 327.691406 147.957031 331.203125 136.972656 320.222656 L 57.386719 240.632812 C 46.402344 229.648438 49.914062 208.332031 65.230469 193.015625 C 80.546875 177.699219 101.863281 174.1875 112.847656 185.171875 Z M 192.4375 264.757812 " clip-rule="nonzero"/></clipPath><mask id="59e4971625"><g filter="url(#a50ba1241d)"><rect x="-37.5" width="450" fill="#000000" y="-37.499999" height="449.999989" fill-opacity="0.75"/></g></mask><clipPath id="8026935242"><path d="M 4 4 L 130 4 L 130 130 L 4 130 Z M 4 4 " clip-rule="nonzero"/></clipPath><clipPath id="f1398f984f"><path d="M 0.5 119.964844 L 119.695312 0.773438 L 132.875 13.953125 L 13.683594 133.144531 Z M 0.5 119.964844 " clip-rule="nonzero"/></clipPath><clipPath id="22e6fc5215"><path d="M 113.207031 7.257812 C 116.785156 3.679688 122.636719 3.730469 126.273438 7.371094 C 129.914062 11.011719 129.964844 16.859375 126.390625 20.4375 L 20.15625 126.667969 C 16.582031 130.246094 10.730469 130.195312 7.089844 126.554688 C 3.453125 122.914062 3.398438 117.066406 6.976562 113.488281 Z M 113.207031 7.257812 " clip-rule="nonzero"/></clipPath><clipPath id="666ec7733a"><rect x="0" width="133" y="0" height="134"/></clipPath></defs><g clip-path="url(#662aa2d50a)"><g clip-path="url(#ee9b51d556)"><path fill="#4f000b" d="M 0 243.878906 L 131.121094 243.878906 L 131.121094 375 L 0 375 Z M 0 243.878906 " fill-opacity="1" fill-rule="nonzero"/></g></g><g clip-path="url(#adb07f3321)"><g clip-path="url(#d7e9ef8c15)"><g clip-path="url(#2b1fc0ffd7)"><path fill="#abc4ff" d="M 64.128906 244.808594 L 316.136719 -7.199219 L 382.441406 59.105469 L 130.433594 311.113281 Z M 64.128906 244.808594 " fill-opacity="1" fill-rule="nonzero"/></g></g></g><g clip-path="url(#290863dbf1)"><g clip-path="url(#0f8c42ef40)"><g clip-path="url(#ffed17515b)"><path fill="#4f000b" d="M 92.960938 165.285156 L 212.335938 284.660156 L 156.875 340.121094 L 37.496094 220.746094 Z M 92.960938 165.285156 " fill-opacity="1" fill-rule="nonzero"/></g></g></g><g mask="url(#59e4971625)"><g transform="matrix(1, 0, 0, 1, 187, 85)"><g clip-path="url(#666ec7733a)"><g clip-path="url(#8026935242)"><g clip-path="url(#f1398f984f)"><g clip-path="url(#22e6fc5215)"><path fill="#ffffff" d="M 0.5 119.964844 L 119.695312 0.773438 L 132.875 13.953125 L 13.683594 133.144531 Z M 0.5 119.964844 " fill-opacity="1" fill-rule="nonzero"/></g></g></g></g></g></g></svg>