<svg xmlns="http://www.w3.org/2000/svg" xmlns:xlink="http://www.w3.org/1999/xlink" width="1920" zoomAndPan="magnify" viewBox="0 0 1440 809.999993" height="1080" preserveAspectRatio="xMidYMid meet" version="1.0"><defs><clipPath id="819168c23e"><path d="M 80.996094 166.214844 L 230.574219 166.214844 L 230.574219 729 L 80.996094 729 Z M 80.996094 166.214844 " clip-rule="nonzero"/></clipPath><clipPath id="4fc2f2508f"><path d="M 230.574219 631.804688 L 230.574219 263.414062 L 155.785156 166.214844 L 80.996094 263.414062 L 80.996094 631.804688 L 155.785156 729.003906 Z M 230.574219 631.804688 " clip-rule="nonzero"/></clipPath><clipPath id="9a476b8101"><path d="M 81.324219 166.214844 L 230.574219 166.214844 L 230.574219 728.714844 L 81.324219 728.714844 Z M 81.324219 166.214844 " clip-rule="nonzero"/></clipPath><clipPath id="ebfdcee688"><path d="M 230.574219 631.796875 L 230.574219 263.410156 L 155.785156 166.214844 L 80.996094 263.410156 L 80.996094 631.796875 L 155.785156 728.996094 Z M 230.574219 631.796875 " clip-rule="nonzero"/></clipPath><clipPath id="e667d33486"><path d="M 1209.414062 166.214844 L 1358.996094 166.214844 L 1358.996094 729 L 1209.414062 729 Z M 1209.414062 166.214844 " clip-rule="nonzero"/></clipPath><clipPath id="a447d09811"><path d="M 1358.996094 631.804688 L 1358.996094 263.414062 L 1284.203125 166.214844 L 1209.414062 263.414062 L 1209.414062 631.804688 L 1284.203125 729.003906 Z M 1358.996094 631.804688 " clip-rule="nonzero"/></clipPath><clipPath id="4e467ed552"><path d="M 1209.746094 166.214844 L 1358.996094 166.214844 L 1358.996094 728.714844 L 1209.746094 728.714844 Z M 1209.746094 166.214844 " clip-rule="nonzero"/></clipPath><clipPath id="c8cf8ac6fb"><path d="M 1358.996094 631.796875 L 1358.996094 263.410156 L 1284.207031 166.214844 L 1209.417969 263.410156 L 1209.417969 631.796875 L 1284.207031 728.996094 Z M 1358.996094 631.796875 " clip-rule="nonzero"/></clipPath><clipPath id="716a0c4021"><path d="M 0 510.257812 L 1440 510.257812 L 1440 810 L 0 810 Z M 0 510.257812 " clip-rule="nonzero"/></clipPath><clipPath id="c7a56a84d0"><path d="M 0.0273438 510.257812 L 1439.972656 510.257812 L 1439.972656 809.988281 L 0.0273438 809.988281 Z M 0.0273438 510.257812 " clip-rule="nonzero"/></clipPath><clipPath id="dd442ae3e5"><path d="M 588.714844 34.925781 L 851.285156 34.925781 L 851.285156 297.496094 L 588.714844 297.496094 Z M 588.714844 34.925781 " clip-rule="nonzero"/></clipPath><clipPath id="1f9df2e68c"><path d="M 720 34.925781 L 761.773438 124.433594 L 851.285156 166.210938 L 761.773438 207.984375 L 720 297.496094 L 678.226562 207.984375 L 588.714844 166.210938 L 678.226562 124.433594 Z M 720 34.925781 " clip-rule="nonzero"/></clipPath><clipPath id="a9c08cc524"><path d="M 588.714844 34.925781 L 851.214844 34.925781 L 851.214844 297.425781 L 588.714844 297.425781 Z M 588.714844 34.925781 " clip-rule="nonzero"/></clipPath><clipPath id="c0725e4fec"><path d="M 720 34.925781 L 761.773438 124.433594 L 851.285156 166.210938 L 761.773438 207.984375 L 720 297.496094 L 678.226562 207.984375 L 588.714844 166.210938 L 678.226562 124.433594 Z M 720 34.925781 " clip-rule="nonzero"/></clipPath></defs><path fill="#edf0da" d="M 0 0 L 1439.648438 0 L 1439.648438 810 L 0 810 Z M 0 0 " fill-opacity="1" fill-rule="nonzero"/><g clip-path="url(#819168c23e)"><g clip-path="url(#4fc2f2508f)"><path fill="#5ca4a9" d="M 230.574219 166.214844 L 230.574219 728.890625 L 80.996094 728.890625 L 80.996094 166.214844 Z M 230.574219 166.214844 " fill-opacity="1" fill-rule="nonzero"/></g></g><g clip-path="url(#9a476b8101)"><g clip-path="url(#ebfdcee688)"><path stroke-linecap="butt" transform="matrix(0, 0.75, -0.75, 0, 230.573915, 166.213562)" fill="none" stroke-linejoin="miter" d="M 620.777742 -0.000404437 L 129.595457 -0.000404437 L 0.00170895 99.718344 L 129.595457 199.437093 L 620.777742 199.437093 L 750.376699 99.718344 Z M 620.777742 -0.000404437 " stroke="#000000" stroke-width="40" stroke-opacity="1" stroke-miterlimit="4"/></g></g><g clip-path="url(#e667d33486)"><g clip-path="url(#a447d09811)"><path fill="#5ca4a9" d="M 1358.996094 166.214844 L 1358.996094 728.890625 L 1209.414062 728.890625 L 1209.414062 166.214844 Z M 1358.996094 166.214844 " fill-opacity="1" fill-rule="nonzero"/></g></g><g clip-path="url(#4e467ed552)"><g clip-path="url(#c8cf8ac6fb)"><path stroke-linecap="butt" transform="matrix(0, 0.75, -0.75, 0, 1358.994202, 166.213562)" fill="none" stroke-linejoin="miter" d="M 620.777742 -0.00252253 L 129.595457 -0.00252253 L 0.00170895 99.716226 L 129.595457 199.434975 L 620.777742 199.434975 L 750.376699 99.716226 Z M 620.777742 -0.00252253 " stroke="#000000" stroke-width="40" stroke-opacity="1" stroke-miterlimit="4"/></g></g><g clip-path="url(#716a0c4021)"><path fill="#4f000b" d="M 0 510.257812 L 1440.164062 510.257812 L 1440.164062 810 L 0 810 Z M 0 510.257812 " fill-opacity="1" fill-rule="nonzero"/></g><g clip-path="url(#c7a56a84d0)"><path stroke-linecap="butt" transform="matrix(0.75, 0, 0, 0.75, 0.0261457, 510.25869)" fill="none" stroke-linejoin="miter" d="M 0.00159736 -0.00117044 L 1919.928777 -0.00117044 L 1919.928777 399.639475 L 0.00159736 399.639475 Z M 0.00159736 -0.00117044 " stroke="#000000" stroke-width="40" stroke-opacity="1" stroke-miterlimit="4"/></g><g clip-path="url(#dd442ae3e5)"><g clip-path="url(#1f9df2e68c)"><path fill="#5ca4a9" d="M 588.714844 34.925781 L 851.285156 34.925781 L 851.285156 297.496094 L 588.714844 297.496094 Z M 588.714844 34.925781 " fill-opacity="1" fill-rule="nonzero"/></g></g><g clip-path="url(#a9c08cc524)"><g clip-path="url(#c0725e4fec)"><path stroke-linecap="butt" transform="matrix(0.75, 0, 0, 0.75, 588.714481, 34.924303)" fill="none" stroke-linejoin="miter" d="M 175.047368 0.00197105 L 230.745287 119.345727 L 350.094252 175.048855 L 230.745287 230.746774 L 175.047368 350.095739 L 119.349449 230.746774 L 0.000484194 175.048855 L 119.349449 119.345727 Z M 175.047368 0.00197105 " stroke="#000000" stroke-width="40" stroke-opacity="1" stroke-miterlimit="4"/></g></g></svg>