<svg xmlns="http://www.w3.org/2000/svg" xmlns:xlink="http://www.w3.org/1999/xlink" width="500" zoomAndPan="magnify" viewBox="0 0 375 374.999991" height="500" preserveAspectRatio="xMidYMid meet" version="1.0"><defs><filter x="0%" y="0%" width="100%" height="100%" id="6d1a2de14f"><feColorMatrix values="0 0 0 0 1 0 0 0 0 1 0 0 0 0 1 0 0 0 1 0" color-interpolation-filters="sRGB"/></filter><clipPath id="d7b7123a5b"><path d="M 1 1 L 374 1 L 374 374 L 1 374 Z M 1 1 " clip-rule="nonzero"/></clipPath><clipPath id="5a963b5ade"><path d="M 294.597656 374.992188 L 0.109375 80.503906 L 80.195312 0.414062 L 374.6875 294.90625 Z M 294.597656 374.992188 " clip-rule="nonzero"/></clipPath><clipPath id="7c2d206ded"><path d="M 2.648438 82.421875 L 292.570312 372.34375 C 293.207031 372.980469 294.101562 373.289062 295 373.179688 C 295.894531 373.070312 296.6875 372.550781 297.152344 371.78125 L 323.234375 328.375 C 324.503906 326.265625 326.269531 324.5 328.378906 323.230469 L 371.785156 297.148438 C 372.558594 296.683594 373.074219 295.890625 373.183594 294.992188 C 373.292969 294.097656 372.984375 293.203125 372.347656 292.566406 L 82.425781 2.644531 C 81.789062 2.007812 80.894531 1.699219 80 1.808594 C 79.105469 1.917969 78.308594 2.433594 77.84375 3.207031 L 51.761719 46.613281 C 50.492188 48.722656 48.726562 50.488281 46.617188 51.757812 L 3.210938 77.839844 C 2.441406 78.304688 1.921875 79.097656 1.8125 79.992188 C 1.703125 80.890625 2.011719 81.785156 2.648438 82.421875 Z M 2.648438 82.421875 " clip-rule="nonzero"/></clipPath><clipPath id="20d1ed773c"><path d="M 114 114 L 261 114 L 261 261 L 114 261 Z M 114 114 " clip-rule="nonzero"/></clipPath><clipPath id="80dbc81150"><path d="M 101.390625 220.75 L 220.9375 101.203125 L 273.792969 154.058594 L 154.25 273.605469 Z M 101.390625 220.75 " clip-rule="nonzero"/></clipPath><clipPath id="268fd22782"><path d="M 200.867188 121.273438 C 211.851562 110.289062 232.585938 113.21875 247.183594 127.816406 C 261.777344 142.410156 264.707031 163.148438 253.722656 174.128906 L 174.136719 253.71875 C 163.152344 264.703125 142.417969 261.773438 127.820312 247.175781 C 113.226562 232.582031 110.296875 211.84375 121.28125 200.863281 Z M 200.867188 121.273438 " clip-rule="nonzero"/></clipPath><mask id="2171f200a6"><g filter="url(#6d1a2de14f)"><rect x="-37.5" width="450" fill="#000000" y="-37.499999" height="449.999989" fill-opacity="0.75"/></g></mask><clipPath id="87d16f7d1b"><path d="M 3 3 L 46 3 L 46 46 L 3 46 Z M 3 3 " clip-rule="nonzero"/></clipPath><clipPath id="21b7262377"><path d="M 1.085938 40.351562 L 40.765625 0.671875 L 48.734375 8.640625 L 9.054688 48.320312 Z M 1.085938 40.351562 " clip-rule="nonzero"/></clipPath><clipPath id="6d3cf2a258"><path d="M 34.289062 7.152344 C 37.863281 3.574219 42.546875 2.460938 44.746094 4.660156 C 46.949219 6.859375 45.832031 11.542969 42.253906 15.117188 L 15.527344 41.84375 C 11.953125 45.421875 7.269531 46.535156 5.070312 44.335938 C 2.871094 42.136719 3.984375 37.453125 7.5625 33.878906 Z M 34.289062 7.152344 " clip-rule="nonzero"/></clipPath><clipPath id="f2f954df7e"><rect x="0" width="49" y="0" height="49"/></clipPath></defs><g clip-path="url(#d7b7123a5b)"><g clip-path="url(#5a963b5ade)"><g clip-path="url(#7c2d206ded)"><path fill="#e7dfc6" d="M 295.222656 374.992188 L 0.109375 79.878906 L 79.886719 0.101562 L 375 295.214844 Z M 295.222656 374.992188 " fill-opacity="1" fill-rule="nonzero"/></g></g></g><g clip-path="url(#20d1ed773c)"><g clip-path="url(#80dbc81150)"><g clip-path="url(#268fd22782)"><path fill="#5ca4a9" d="M 101.390625 220.75 L 220.730469 101.410156 L 273.585938 154.265625 L 154.25 273.605469 Z M 101.390625 220.75 " fill-opacity="1" fill-rule="nonzero"/></g></g></g><g mask="url(#2171f200a6)"><g transform="matrix(1, 0, 0, 1, 199, 163)"><g clip-path="url(#f2f954df7e)"><g clip-path="url(#87d16f7d1b)"><g clip-path="url(#21b7262377)"><g clip-path="url(#6d3cf2a258)"><path fill="#ffffff" d="M 1.085938 40.351562 L 40.765625 0.671875 L 48.734375 8.640625 L 9.054688 48.320312 Z M 1.085938 40.351562 " fill-opacity="1" fill-rule="nonzero"/></g></g></g></g></g></g></svg>